<svg version="1.2" xmlns="http://www.w3.org/2000/svg" viewBox="-20.000000000000014 0 439.99999999999994 341.00000000000006" width="441" height="342">
	<title>OhneTextNeu</title>
	<style>
		.s0 { fill: #a67c00 } 
	</style>
	<g id="Layer 1">
		<g id="Layer 1">
			<path id="Form 4" fill-rule="evenodd" class="s0" d="m203 273.5c-58.9 0-106.4-47.5-106.4-106.4 0-58.8 47.5-106.4 106.4-106.4 58.8 0 106.4 47.6 106.4 106.4 0 58.9-47.6 106.4-106.4 106.4zm93.8-106.4c0-23.3-8.5-44.6-22.6-61l-61.5 61.5 61.1 61.1c14.3-16.5 23-38 23-61.6zm-93.8-93.8c-23.6 0-45.1 8.7-61.6 23l61.2 61.2 61.5-61.5c-16.4-14.1-37.7-22.7-61.1-22.7zm-93.8 93.8c0 23.4 8.5 44.8 22.7 61.2l60.6-60.7-61.1-61.1c-13.8 16.3-22.2 37.5-22.2 60.6zm270.1 128.9c0 15.2-12.3 27.5-27.5 27.5h-298.3c-15.2 0-27.5-12.3-27.5-27.5v-42.8h15.9v28.7c0 15.2 12.4 27.5 27.6 27.5h266.3c15.2 0 27.6-12.3 27.6-27.5v-154.1h15.9zm-325.8-286h298.3c15.2 0 27.5 12.3 27.5 27.5v30.6h-15.9v-16.5c0-15.2-12.4-27.5-27.6-27.5h-266.3c-15.2 0-27.6 12.3-27.6 27.5v18h-15.9v-32.1c0-15.2 12.3-27.5 27.5-27.5zm149.5 250.8c23.1 0 44.3-8.3 60.6-22.2l-61-61-60.7 60.7c16.4 14 37.8 22.5 61.1 22.5zm-177-174.4h15.9v149.9h-15.9z"/>
			<g id="Ordner 1">
			</g>
		</g>
	</g>
</svg>