<?xml version="1.0" encoding="UTF-8" standalone="no"?>
<svg
   xmlns:dc="http://purl.org/dc/elements/1.1/"
   xmlns:cc="http://creativecommons.org/ns#"
   xmlns:rdf="http://www.w3.org/1999/02/22-rdf-syntax-ns#"
   xmlns:svg="http://www.w3.org/2000/svg"
   xmlns="http://www.w3.org/2000/svg"
   viewBox="0 0 500 92"
   height="92"
   width="500"
   xml:space="preserve"
   id="svg2"
   version="1.1"><metadata
     id="metadata8"><rdf:RDF><cc:Work
         rdf:about=""><dc:format>image/svg+xml</dc:format><dc:type
           rdf:resource="http://purl.org/dc/dcmitype/StillImage" /></cc:Work></rdf:RDF></metadata><defs
     id="defs6" /><g
     transform="matrix(1.3333333,0,0,-1.3333333,0,92)"
     id="g10"><g
       transform="scale(0.1)"
       id="g12"><path
         id="path14"
         style="fill:#A67C00;fill-opacity:1;fill-rule:nonzero;stroke:none"
         d="m 26.0898,665 c -28.98043,-28.98 -35.96871,-105 -10,-105 10,0 15,10 15,30 0,16.988 9.0313,38.98 20,50 19.0313,18.98 33.0118,20 340.0002,20 307.031,0 321.019,-1.02 340,-20 11.019,-11.02 20,-31.02 20,-45 0,-16.02 6.019,-25 16.019,-25 13.981,0 16.012,8.012 11.012,41.988 C 767.109,691.02 775.121,690 389.102,690 H 50.1211 Z" /><path
         id="path16"
         style="fill:#A67C00;fill-opacity:1;fill-rule:nonzero;stroke:none"
         d="M 296.09,551.02 C 243.121,526.988 185.121,461.02 170.121,408.012 144.102,308.98 187.109,200 275.121,145 c 41.988,-25 58.981,-30 115.969,-30 57.031,0 74.031,5 116.019,30 198.981,123.98 115,426.02 -118.007,425 -30,0 -70.981,-8.98 -93.012,-18.98 z M 492.109,528.012 C 514.102,516.02 531.09,503.98 531.09,500 c 0,-3.012 -30.969,-36.988 -70,-75 l -70,-68.98 -70,68.98 c -37.969,38.012 -70,71.988 -70,76.02 0,3.98 19.031,15.968 43.012,27.96 58.007,29.032 146.019,29.032 198.007,-0.968 z m -185,-256.992 c -38.007,-39.032 -73.988,-67.04 -78.988,-64.032 -19.019,11.024 -47.031,89.032 -47.031,131.024 0,41.988 19.031,101.988 42.031,128.976 8.988,11.992 23.988,1.024 82,-55.968 L 376.09,340 Z M 575.121,450 C 602.109,403.98 607.109,318.98 587.109,266.02 559.102,191.988 553.121,193.012 476.09,270 l -68.981,70 68.981,70 c 38.012,38.98 72.031,70 75,70 3.012,0 14.031,-13.98 24.031,-30 z m -111.019,-198.012 68.007,-68.976 -23.007,-15 C 441.09,123.012 350.121,120 286.09,160 l -36.988,23.012 68.007,68.008 c 38.012,37.96 71.012,68.98 73.981,68.98 3.012,0 36.019,-31.02 73.012,-68.012 z" /><path
         id="path18"
         style="fill:#A67C00;fill-opacity:1;fill-rule:nonzero;stroke:none"
         d="m 965.121,520 c -47,-15 -91.019,-70 -100,-125 -21.019,-146.02 53,-233.98 188.979,-221.988 34.02,3.008 74.02,10 90,15.968 25,10 26.99,15 26.99,66.02 v 55 h -48.98 c -46.02,0 -50,-1.988 -53.01,-26.02 -3.01,-30.968 -28.01,-50 -51.99,-40.968 -23.008,8.976 -23.989,201.988 0,210.968 23.98,9.032 53.98,-11.992 53.98,-38.98 0,-23.012 4.03,-25 50,-25 h 50 v 55 c 0,51.02 -1.99,56.02 -26.99,66.02 -38.98,15 -141.99,20 -178.979,8.98 z" /><path
         id="path20"
         style="fill:#A67C00;fill-opacity:1;fill-rule:nonzero;stroke:none"
         d="m 1.08984,355 c 0,-140 2.03125,-165 14.99996,-165 13.0118,0 15,25 15,165 0,140 -1.9882,165 -15,165 C 3.12109,520 1.08984,495 1.08984,355 Z" /><path
         id="path22"
         style="fill:#A67C00;fill-opacity:1;fill-rule:nonzero;stroke:none"
         d="m 1191.09,490 c 0,-20 5,-30 15,-30 12.03,0 15,-18.98 15,-110 0,-91.02 -2.97,-110 -15,-110 -10,0 -15,-11.02 -15,-35 v -35 h 170 v 35 c 0,18.98 -3.98,35 -10,35 -5.97,0 -10,43.012 -10,110 0,66.988 4.03,110 10,110 6.02,0 10,13.98 10,30 v 30 h -170 z" /><path
         id="path24"
         style="fill:#A67C00;fill-opacity:1;fill-rule:nonzero;stroke:none"
         d="m 1391.09,490 c 0,-20 5,-30 15,-30 12.03,0 15,-18.98 15,-110 0,-91.02 -2.97,-110 -15,-110 -10,0 -15,-11.02 -15,-35 v -35 h 150 v 35 c 0,23.98 -5,35 -15,35 -11.99,0 -15,13.98 -15,70 0,38.98 3.01,70 8.01,70 4.02,-1.02 36.99,-48.012 74.02,-105 l 67,-105 h 120.97 v 145 c 0,90 4.03,145 10,145 6.02,0 10,13.98 10,30 v 30 h -140 v -28.98 c 0,-16.02 5,-31.02 11.02,-33.008 6.01,-1.992 8.98,-26.992 6.99,-63.012 l -3.01,-58.98 -120,183.98 h -165 z" /><path
         id="path26"
         style="fill:#A67C00;fill-opacity:1;fill-rule:nonzero;stroke:none"
         d="m 1821.09,490 c 0,-20 5,-30 15,-30 12.03,0 15,-18.98 15,-110 0,-91.02 -2.97,-110 -15,-110 -10,0 -15,-11.02 -15,-35 v -35 h 310 v 140 h -100 v -35 c 0,-31.988 -1.99,-35 -30,-35 -28.98,0 -30,1.988 -30,45 0,38.012 3.01,45 20,45 15,0 20,6.988 20,25 0,18.012 -5,25 -20,25 -16.99,0 -20,6.988 -20,40 0,38.012 2.03,40 30,40 28.01,0 30,-3.012 30,-35 v -35 h 100 v 130 h -310 z" /><path
         id="path28"
         style="fill:#A67C00;fill-opacity:1;fill-rule:nonzero;stroke:none"
         d="m 2151.09,490 c 0,-16.02 4.03,-30 8.01,-30 5,0 19.02,-35 31.02,-76.988 11.99,-43.012 31.99,-108.012 43,-145 l 20,-68.012 h 137 l 25,83.012 c 13.98,45 33,110 41.99,145 10,33.976 21.01,61.988 26.01,61.988 3.99,0 7.97,13.98 7.97,30 v 30 h -140 v -28.98 c 0,-16.02 5,-31.02 11.02,-33.008 8.01,-3.012 6.01,-26.992 -6.02,-86.024 -10,-45 -20.97,-80 -23.98,-75.968 -3.01,2.96 -13.01,40.968 -21.99,85 -13.01,65 -14.03,78.98 -3.01,78.98 8.98,0 13.98,11.02 13.98,30 v 30 h -170 z" /><path
         id="path30"
         style="fill:#A67C00;fill-opacity:1;fill-rule:nonzero;stroke:none"
         d="m 2507.11,383.012 c -20,-76.024 -41.02,-139.032 -46.02,-141.024 -5.97,-1.988 -10,-18.976 -10,-38.008 V 170 h 150 v 35 c 0,23.98 -5,35 -15,35 -15.97,0 -18.98,8.98 -8.98,33.98 6.99,17.04 73.98,23.008 73.98,7.04 0,-5 3.01,-16.02 6.02,-25 3.98,-11.02 1.01,-16.02 -10,-16.02 -11.99,0 -16.02,-10 -16.02,-35 v -35 h 170 v 35 c 0,18.98 -3.98,35 -7.97,35 -5,0 -26.01,63.012 -47.03,140 l -37.97,140 h -163 z m 126.99,-20 c 6.02,-30 4.02,-33.012 -18.98,-33.012 -24.03,0 -25,3.012 -19.03,33.012 4.03,16.988 9.03,40.968 12.03,51.988 5.98,20 5.98,20 12.97,0 4.03,-11.02 10,-35 13.01,-51.988 z" /><path
         id="path32"
         style="fill:#A67C00;fill-opacity:1;fill-rule:nonzero;stroke:none"
         d="m 2811.09,491.02 c 0,-16.02 6.02,-31.02 15,-35 12.03,-4.032 15,-26.02 15,-111.02 0,-101.988 1.02,-106.02 29.03,-136.988 C 2899.1,176.02 2901.09,175 2981.09,175 c 80,0 82.03,1.02 111.02,33.012 28.01,30.968 28.98,35 28.98,136.988 0,85 3.01,106.988 15,111.02 9.03,3.98 15,18.98 15,35 V 520 h -150 v -30 c 0,-16.02 5,-30 10,-30 7.03,0 10,-36.02 8.01,-101.02 -3.01,-85.968 -5.98,-103.98 -20.98,-112.96 -32.03,-20 -47.03,15.968 -47.03,115 0,47.96 5,90.968 10,93.98 6.02,3.012 10,18.98 10,36.02 V 520 h -160 z" /><path
         id="path34"
         style="fill:#A67C00;fill-opacity:1;fill-rule:nonzero;stroke:none"
         d="m 3171.09,490 c 0,-20 5,-30 15,-30 12.03,0 15,-18.98 15,-110 0,-91.02 -2.97,-110 -15,-110 -10,0 -15,-11.02 -15,-35 v -35 h 280 v 110 h -40 c -32.97,0 -40,-3.012 -40,-20 0,-15 -6.99,-20 -25,-20 h -25 v 110 c 0,103.012 1.02,110 20,110 16.02,0 20,6.988 20,30 v 30 h -190 z" /><path
         id="path36"
         style="fill:#A67C00;fill-opacity:1;fill-rule:nonzero;stroke:none"
         d="m 3401.09,470 v -50 h 35 c 28.01,0 35,3.98 35,20 0,13.012 7.03,20 20,20 19.03,0 20,-6.988 20,-110 0,-91.02 -2.97,-110 -15,-110 -10,0 -15,-11.02 -15,-35 v -35 h 180 v 35 c 0,23.98 -5,35 -15,35 -11.99,0 -15,18.98 -15,110 0,103.012 1.02,110 20,110 13.01,0 20,-6.988 20,-20 0,-16.02 7.03,-20 35,-20 h 35 v 100 h -340 z" /><path
         id="path38"
         style="fill:#A67C00;fill-opacity:1;fill-rule:nonzero;stroke:none"
         d="M 751.09,251.988 C 751.09,108.012 748.121,70 735.121,51.9883 720.121,30 720.121,30 391.09,30 62.1094,30 62.1094,30 47.1094,51.9883 38.1211,63.9805 31.0898,91.0195 31.0898,111.988 31.0898,140 27.1094,150 15.1211,150 -9.87891,150 0.121094,35 27.1094,15 43.1211,3.01172 104.102,1.01953 393.121,0 h 347 l 20,26.0195 c 20,25 20.969,40 20.969,215.0005 0,160.968 -1.988,188.98 -15,188.98 -12.969,0 -15,-26.02 -15,-178.012 z" /></g></g></svg>